<svg version="1.1" viewBox="0.0 0.0 399.84776902887137 148.20997375328085" fill="none" stroke="none" stroke-linecap="square" stroke-miterlimit="10" xmlns:xlink="http://www.w3.org/1999/xlink" xmlns="http://www.w3.org/2000/svg"><clipPath id="p.0"><path d="m0 0l399.84778 0l0 148.20998l-399.84778 0l0 -148.20998z" clip-rule="nonzero"/></clipPath><g clip-path="url(#p.0)"><path fill="#000000" fill-opacity="0.0" d="m0 0l399.84778 0l0 148.20998l-399.84778 0z" fill-rule="evenodd"/><path fill="#000000" d="m0.003976903 -0.0012716536l399.14963 0l0 147.59055l-399.14963 0z" fill-rule="evenodd"/><path stroke="#000000" stroke-width="1.0" stroke-linejoin="round" stroke-linecap="butt" d="m0.003976903 -0.0012716536l399.14963 0l0 147.59055l-399.14963 0z" fill-rule="evenodd"/><path fill="#ffffff" d="m77.824905 69.18225c2.6766434 0 4.8869934 0.62979126 6.63105 1.8893661c1.7440567 1.2595749 2.9007034 3.0823288 3.4699478 5.4682617c0.5692444 2.3859253 0.52080536 5.1412506 -0.14533234 8.265968c-0.6782532 3.1973877 -1.8046188 5.970871 -3.3791122 8.320473c-1.5744934 2.3374786 -3.5123367 4.178398 -5.81353 5.5227585c-2.2890778 1.3322449 -4.7719345 1.9983673 -7.448578 1.9983673c-2.7493134 0 -4.989952 -0.66612244 -6.7218857 -1.9983673c-1.7198334 -1.3443604 -2.8885994 -3.1852798 -3.5062866 -5.5227585c-0.6176872 -2.3496017 -0.58741 -5.123085 0.09083557 -8.320473c0.66613007 -3.1247177 1.810669 -5.880043 3.4336166 -8.265968c1.6229477 -2.385933 3.5728989 -4.208679 5.849861 -5.4682617c2.2769623 -1.2595749 4.7901077 -1.8893661 7.5394135 -1.8893661zm-22.99976 -37.296783l-17.531414 82.4962l16.641216 0l1.8022842 -6.307884l0 0c0.88518524 1.3102646 2.0224228 2.4863815 3.411724 3.5283432c1.7077217 1.2595749 3.712181 2.2587585 6.0133667 2.997551c2.301178 0.75090027 4.7901 1.1263504 7.4667435 1.1263504c4.989937 0 9.731598 -1.3201294 14.224968 -3.9604034c4.5054855 -2.6523743 8.387222 -6.303932 11.645218 -10.954681c3.270111 -4.6507416 5.5410156 -9.985771 6.812729 -16.005096c1.2717056 -5.958763 1.2474823 -11.263519 -0.07266998 -15.914261c-1.3201523 -4.650749 -3.6879578 -8.296253 -7.103401 -10.93652c-3.4154434 -2.6402626 -7.690811 -3.9603958 -12.826088 -3.9603958c-2.458641 0 -4.923332 0.37545013 -7.394081 1.1263504c-2.458641 0.7387924 -4.796158 1.7621956 -7.0125656 3.0702171c-1.6059723 0.93899536 -3.05616 1.9765549 -4.3505554 3.1126747l0 0l6.239952 -29.418444z" fill-rule="evenodd"/><path fill="#ffffff" d="m146.63797 68.94608c2.0831757 0 3.8514557 0.41178894 5.30484 1.2353516c1.4654999 0.8114624 2.5434265 1.9438705 3.23378 3.3972244c0.7024689 1.4533615 0.93258667 3.1126099 0.6903534 4.9777527l-0.023040771 0.10900116l-24.360764 0c0.4814453 -1.0721664 1.0336304 -2.0592346 1.6565552 -2.9612198c1.5139313 -2.1921463 3.4154358 -3.8635101 5.7045135 -5.014084c2.2890778 -1.1626816 4.8869934 -1.7440262 7.793762 -1.7440262zm2.961258 -14.951412c-4.396469 0 -8.599167 0.76301193 -12.608078 2.2890358c-4.008911 1.5260277 -7.6484222 3.6878967 -10.918526 6.485607c-3.270111 2.7856026 -6.0557556 6.073826 -8.356941 9.864666c-2.2890778 3.7908401 -3.9180756 7.9571304 -4.8869934 12.498871c-1.2474823 5.886101 -1.0173721 11.118187 0.6903534 15.696259c1.7077255 4.5659714 4.6992645 8.16909 8.974632 10.809349c4.27536 2.6402664 9.689201 3.9603958 16.241539 3.9603958c2.6766357 0 5.4380646 -0.31489563 8.284271 -0.94467926c2.8462067 -0.62978363 5.7045135 -1.5744705 8.574951 -2.8340454c2.8825378 -1.2716904 5.6924133 -2.9127731 8.429611 -4.9232483l-5.8680267 -11.826698c-2.676651 1.780365 -5.08078 3.04599 -7.2124023 3.796898c-2.1316376 0.7387848 -4.463089 1.1081848 -6.9944 1.1081848c-3.6455688 0 -6.649231 -0.66612244 -9.010971 -1.9983673c-2.3496246 -1.3443527 -3.9604645 -3.221611 -4.832489 -5.6317596c-0.39736938 -1.1193161 -0.6292114 -2.3304443 -0.6955414 -3.6333923l40.718033 0l1.1263733 -4.7960815c1.0658112 -4.323738 1.3140869 -8.308357 0.7448578 -11.953865c-0.5571289 -3.6455078 -1.8167267 -6.8065567 -3.7787933 -9.483154c-1.9620667 -2.6766014 -4.5175934 -4.7597466 -7.6665955 -6.2494392c-3.1368713 -1.4896927 -6.788498 -2.2345352 -10.9548645 -2.2345352z" fill-rule="evenodd"/><path fill="#ffffff" d="m227.277 62.405045l0 0c0 0 0 0 0 0l0 0l0 0zm-14.684891 6.6500397c2.7493134 0 4.9899445 0.6540146 6.7218933 1.9620361c1.7319489 1.2959061 2.900711 3.11866 3.5062866 5.468254c0.6176758 2.349594 0.58740234 5.123085 -0.09083557 8.320473c-0.6782532 3.1973877 -1.8227844 5.970871 -3.4336243 8.320473c-1.6108246 2.3374786 -3.554718 4.142067 -5.8316956 5.4137573c-2.2769623 1.2595749 -4.7901 1.8893661 -7.5394135 1.8893661c-2.6766357 0 -4.86882 -0.62979126 -6.5765533 -1.8893661c-1.7077179 -1.2716904 -2.8704224 -3.0762787 -3.4881134 -5.4137573c-0.6176758 -2.3496017 -0.58740234 -5.123085 0.09083557 -8.320473c0.6782532 -3.1973877 1.8227844 -5.9708786 3.4336243 -8.320473c1.6229401 -2.349594 3.5607758 -4.1723404 5.8135223 -5.468254c2.2527466 -1.3080215 4.7174377 -1.9620361 7.3940735 -1.9620361zm-1.1627045 -15.060413c-5.1352844 0 -9.991989 1.3201332 -14.570145 3.9603958c-4.5781555 2.6402664 -8.514389 6.267605 -11.808731 10.882015c-3.2822113 4.6144104 -5.5652313 9.937332 -6.84906 15.968765c-1.2474823 5.873993 -1.2111511 11.136353 0.10900879 15.787094c1.3201599 4.6507416 3.6516266 8.296249 6.9944 10.936516c3.3427734 2.6402664 7.5030823 3.9603958 12.480911 3.9603958c2.6887512 0 5.310898 -0.4057312 7.8664246 -1.217186c2.5555267 -0.82357025 4.9475555 -1.9378128 7.176071 -3.34272c1.6484222 -1.0424957 3.159195 -2.206276 4.532303 -3.4913254l0 0l-1.4983673 7.0520477l18.094604 0l12.589905 -59.260647l-17.74942 0l-1.5203094 7.175022l0 0c-0.7736664 -1.3935204 -1.7323914 -2.6527863 -2.8761597 -3.7777977c-1.4776154 -1.4533577 -3.3003998 -2.5857658 -5.4683533 -3.3972244c-2.1679535 -0.82356644 -4.668991 -1.2353516 -7.5030823 -1.2353516zm70.886765 0c-3.0520935 0 -6.1042175 0.4299507 -9.156311 1.2898521c-3.039978 0.8477936 -5.837738 2.0952606 -8.39328 3.7423973c-2.543396 1.635025 -4.7053223 3.56678 -6.485718 5.7952614c-1.76828 2.228485 -2.9430847 4.7234116 -3.5244446 7.4847946c-0.50868225 2.3738174 -0.5571289 4.511467 -0.1453247 6.4129333c0.41178894 1.9014816 1.1990356 3.6334 2.3617249 5.195755c1.283844 1.635025 3.0763245 3.0641632 5.377533 4.287407c2.3132935 1.2232437 5.123169 2.2829895 8.429596 3.1792145c2.325409 0.66612244 4.20874 1.2656326 5.6500244 1.7985306c1.4533691 0.5207825 2.4768066 0.9628525 3.070282 1.3261948c1.1626892 0.82357025 1.5866089 1.9801941 1.271698 3.4698868c-0.15744019 0.7387848 -0.44207764 1.3867416 -0.8538513 1.9438629c-0.4118042 0.5571213 -0.94470215 1.0415726 -1.5987244 1.4533615c-0.6540222 0.4117813 -1.4170532 0.73272705 -2.289093 0.96284485c-0.8598938 0.21800995 -1.810669 0.3270111 -2.8522644 0.3270111c-2.6039734 0 -5.2442627 -0.5389557 -7.9208984 -1.6168594c-2.6645508 -1.0779114 -4.899109 -2.7734985 -6.7037354 -5.086754l-12.826096 9.374153c1.937851 3.1247177 4.92334 5.619652 8.956467 7.4847946c4.033142 1.8530273 8.950409 2.779541 14.751831 2.779541c4.7598267 0 9.180511 -0.8356781 13.262085 -2.5070343c4.0815735 -1.6713638 7.490967 -3.9725113 10.22818 -6.90345c2.7493286 -2.9430466 4.529724 -6.3160477 5.3411865 -10.119003c0.41177368 -1.9378052 0.4965515 -3.7423935 0.2543335 -5.4137573c-0.24224854 -1.6713562 -0.8296509 -3.1368256 -1.7622375 -4.396408c-1.1384583 -1.6471329 -2.8461914 -3.0641556 -5.123169 -4.251068c-2.2648315 -1.1869049 -5.0444336 -2.2648087 -8.338776 -3.2337189c-2.6645203 -0.82357025 -4.7537537 -1.513916 -6.2677 -2.0710373c-1.5139465 -0.5571213 -2.591858 -1.0597382 -3.2337646 -1.5078583c-0.6540222 -0.44812012 -1.1142578 -1.0052414 -1.3807068 -1.6713562c-0.2664795 -0.66612244 -0.32095337 -1.3746414 -0.16351318 -2.125534c0.15744019 -0.7387924 0.44207764 -1.3867493 0.8538513 -1.9438705c0.42391968 -0.5571213 0.9749756 -1.0415726 1.6532288 -1.4533539c0.6782532 -0.41178894 1.4654846 -0.70851135 2.3617554 -0.8901825c0.89624023 -0.18167114 1.9014893 -0.2725067 3.015747 -0.2725067c1.4897156 0 3.064209 0.29673004 4.7235107 0.8901825c1.6592712 0.59345245 3.2156067 1.3927994 4.668976 2.3980408c1.4654846 1.0052338 2.7311401 2.137642 3.7969666 3.3972244l11.608887 -10.482342c-1.5987244 -1.8651428 -3.542633 -3.4638367 -5.8316956 -4.7960815c-2.2769775 -1.3443565 -4.8264465 -2.3859253 -7.6484375 -3.1247177c-2.8219604 -0.75090027 -5.8680115 -1.1263504 -9.138123 -1.1263504z" fill-rule="evenodd"/><path fill="#ffffff" d="m325.632 40.26044l-3.1800842 14.969582l-10.499878 0l-3.306427 15.623592l10.487274 0l-9.270081 43.637054l17.858429 0l9.270081 -43.637054l11.495087 0l3.3064575 -15.623592l-11.482513 0l3.1800842 -14.969582zm34.069275 55.481922c-2.8219604 0 -5.322998 0.9325714 -7.5030823 2.7977142c-2.1800842 1.8530273 -3.5849915 4.2692337 -4.214813 7.248619c-0.67822266 3.1973877 -0.3633423 5.655983 0.94470215 7.375786c1.3201599 1.707695 3.5002441 2.5615463 6.540222 2.5615463c2.9067688 0 5.450165 -0.93257904 7.630249 -2.7977142c2.1800842 -1.8651428 3.578949 -4.2450104 4.1966553 -7.139618c0.67822266 -3.1973877 0.3451538 -5.6680984 -0.99920654 -7.4121246c-1.3443909 -1.756134 -3.542633 -2.6342087 -6.5947266 -2.6342087z" fill-rule="evenodd"/><path stroke="#ffffff" stroke-width="1.0" stroke-linejoin="round" stroke-linecap="butt" d="m77.824905 69.18225c2.6766434 0 4.8869934 0.62979126 6.63105 1.8893661c1.7440567 1.2595749 2.9007034 3.0823288 3.4699478 5.4682617c0.5692444 2.3859253 0.52080536 5.1412506 -0.14533234 8.265968c-0.6782532 3.1973877 -1.8046188 5.970871 -3.3791122 8.320473c-1.5744934 2.3374786 -3.5123367 4.178398 -5.81353 5.5227585c-2.2890778 1.3322449 -4.7719345 1.9983673 -7.448578 1.9983673c-2.7493134 0 -4.989952 -0.66612244 -6.7218857 -1.9983673c-1.7198334 -1.3443604 -2.8885994 -3.1852798 -3.5062866 -5.5227585c-0.6176872 -2.3496017 -0.58741 -5.123085 0.09083557 -8.320473c0.66613007 -3.1247177 1.810669 -5.880043 3.4336166 -8.265968c1.6229477 -2.385933 3.5728989 -4.208679 5.849861 -5.4682617c2.2769623 -1.2595749 4.7901077 -1.8893661 7.5394135 -1.8893661zm-22.99976 -37.296783l-17.531414 82.4962l16.641216 0l1.8022842 -6.307884l0 0c0.88518524 1.3102646 2.0224228 2.4863815 3.411724 3.5283432c1.7077217 1.2595749 3.712181 2.2587585 6.0133667 2.997551c2.301178 0.75090027 4.7901 1.1263504 7.4667435 1.1263504c4.989937 0 9.731598 -1.3201294 14.224968 -3.9604034c4.5054855 -2.6523743 8.387222 -6.303932 11.645218 -10.954681c3.270111 -4.6507416 5.5410156 -9.985771 6.812729 -16.005096c1.2717056 -5.958763 1.2474823 -11.263519 -0.07266998 -15.914261c-1.3201523 -4.650749 -3.6879578 -8.296253 -7.103401 -10.93652c-3.4154434 -2.6402626 -7.690811 -3.9603958 -12.826088 -3.9603958c-2.458641 0 -4.923332 0.37545013 -7.394081 1.1263504c-2.458641 0.7387924 -4.796158 1.7621956 -7.0125656 3.0702171c-1.6059723 0.93899536 -3.05616 1.9765549 -4.3505554 3.1126747l0 0l6.239952 -29.418444z" fill-rule="evenodd"/><path stroke="#ffffff" stroke-width="1.0" stroke-linejoin="round" stroke-linecap="butt" d="m146.63797 68.94608c2.0831757 0 3.8514557 0.41178894 5.30484 1.2353516c1.4654999 0.8114624 2.5434265 1.9438705 3.23378 3.3972244c0.7024689 1.4533615 0.93258667 3.1126099 0.6903534 4.9777527l-0.023040771 0.10900116l-24.360764 0c0.4814453 -1.0721664 1.0336304 -2.0592346 1.6565552 -2.9612198c1.5139313 -2.1921463 3.4154358 -3.8635101 5.7045135 -5.014084c2.2890778 -1.1626816 4.8869934 -1.7440262 7.793762 -1.7440262zm2.961258 -14.951412c-4.396469 0 -8.599167 0.76301193 -12.608078 2.2890358c-4.008911 1.5260277 -7.6484222 3.6878967 -10.918526 6.485607c-3.270111 2.7856026 -6.0557556 6.073826 -8.356941 9.864666c-2.2890778 3.7908401 -3.9180756 7.9571304 -4.8869934 12.498871c-1.2474823 5.886101 -1.0173721 11.118187 0.6903534 15.696259c1.7077255 4.5659714 4.6992645 8.16909 8.974632 10.809349c4.27536 2.6402664 9.689201 3.9603958 16.241539 3.9603958c2.6766357 0 5.4380646 -0.31489563 8.284271 -0.94467926c2.8462067 -0.62978363 5.7045135 -1.5744705 8.574951 -2.8340454c2.8825378 -1.2716904 5.6924133 -2.9127731 8.429611 -4.9232483l-5.8680267 -11.826698c-2.676651 1.780365 -5.08078 3.04599 -7.2124023 3.796898c-2.1316376 0.7387848 -4.463089 1.1081848 -6.9944 1.1081848c-3.6455688 0 -6.649231 -0.66612244 -9.010971 -1.9983673c-2.3496246 -1.3443527 -3.9604645 -3.221611 -4.832489 -5.6317596c-0.39736938 -1.1193161 -0.6292114 -2.3304443 -0.6955414 -3.6333923l40.718033 0l1.1263733 -4.7960815c1.0658112 -4.323738 1.3140869 -8.308357 0.7448578 -11.953865c-0.5571289 -3.6455078 -1.8167267 -6.8065567 -3.7787933 -9.483154c-1.9620667 -2.6766014 -4.5175934 -4.7597466 -7.6665955 -6.2494392c-3.1368713 -1.4896927 -6.788498 -2.2345352 -10.9548645 -2.2345352z" fill-rule="evenodd"/><path stroke="#ffffff" stroke-width="1.0" stroke-linejoin="round" stroke-linecap="butt" d="m227.277 62.405045l0 0c0 0 0 0 0 0l0 0l0 0zm-14.684891 6.6500397c2.7493134 0 4.9899445 0.6540146 6.7218933 1.9620361c1.7319489 1.2959061 2.900711 3.11866 3.5062866 5.468254c0.6176758 2.349594 0.58740234 5.123085 -0.09083557 8.320473c-0.6782532 3.1973877 -1.8227844 5.970871 -3.4336243 8.320473c-1.6108246 2.3374786 -3.554718 4.142067 -5.8316956 5.4137573c-2.2769623 1.2595749 -4.7901 1.8893661 -7.5394135 1.8893661c-2.6766357 0 -4.86882 -0.62979126 -6.5765533 -1.8893661c-1.7077179 -1.2716904 -2.8704224 -3.0762787 -3.4881134 -5.4137573c-0.6176758 -2.3496017 -0.58740234 -5.123085 0.09083557 -8.320473c0.6782532 -3.1973877 1.8227844 -5.9708786 3.4336243 -8.320473c1.6229401 -2.349594 3.5607758 -4.1723404 5.8135223 -5.468254c2.2527466 -1.3080215 4.7174377 -1.9620361 7.3940735 -1.9620361zm-1.1627045 -15.060413c-5.1352844 0 -9.991989 1.3201332 -14.570145 3.9603958c-4.5781555 2.6402664 -8.514389 6.267605 -11.808731 10.882015c-3.2822113 4.6144104 -5.5652313 9.937332 -6.84906 15.968765c-1.2474823 5.873993 -1.2111511 11.136353 0.10900879 15.787094c1.3201599 4.6507416 3.6516266 8.296249 6.9944 10.936516c3.3427734 2.6402664 7.5030823 3.9603958 12.480911 3.9603958c2.6887512 0 5.310898 -0.4057312 7.8664246 -1.217186c2.5555267 -0.82357025 4.9475555 -1.9378128 7.176071 -3.34272c1.6484222 -1.0424957 3.159195 -2.206276 4.532303 -3.4913254l0 0l-1.4983673 7.0520477l18.094604 0l12.589905 -59.260647l-17.74942 0l-1.5203094 7.175022l0 0c-0.7736664 -1.3935204 -1.7323914 -2.6527863 -2.8761597 -3.7777977c-1.4776154 -1.4533577 -3.3003998 -2.5857658 -5.4683533 -3.3972244c-2.1679535 -0.82356644 -4.668991 -1.2353516 -7.5030823 -1.2353516zm70.886765 0c-3.0520935 0 -6.1042175 0.4299507 -9.156311 1.2898521c-3.039978 0.8477936 -5.837738 2.0952606 -8.39328 3.7423973c-2.543396 1.635025 -4.7053223 3.56678 -6.485718 5.7952614c-1.76828 2.228485 -2.9430847 4.7234116 -3.5244446 7.4847946c-0.50868225 2.3738174 -0.5571289 4.511467 -0.1453247 6.4129333c0.41178894 1.9014816 1.1990356 3.6334 2.3617249 5.195755c1.283844 1.635025 3.0763245 3.0641632 5.377533 4.287407c2.3132935 1.2232437 5.123169 2.2829895 8.429596 3.1792145c2.325409 0.66612244 4.20874 1.2656326 5.6500244 1.7985306c1.4533691 0.5207825 2.4768066 0.9628525 3.070282 1.3261948c1.1626892 0.82357025 1.5866089 1.9801941 1.271698 3.4698868c-0.15744019 0.7387848 -0.44207764 1.3867416 -0.8538513 1.9438629c-0.4118042 0.5571213 -0.94470215 1.0415726 -1.5987244 1.4533615c-0.6540222 0.4117813 -1.4170532 0.73272705 -2.289093 0.96284485c-0.8598938 0.21800995 -1.810669 0.3270111 -2.8522644 0.3270111c-2.6039734 0 -5.2442627 -0.5389557 -7.9208984 -1.6168594c-2.6645508 -1.0779114 -4.899109 -2.7734985 -6.7037354 -5.086754l-12.826096 9.374153c1.937851 3.1247177 4.92334 5.619652 8.956467 7.4847946c4.033142 1.8530273 8.950409 2.779541 14.751831 2.779541c4.7598267 0 9.180511 -0.8356781 13.262085 -2.5070343c4.0815735 -1.6713638 7.490967 -3.9725113 10.22818 -6.90345c2.7493286 -2.9430466 4.529724 -6.3160477 5.3411865 -10.119003c0.41177368 -1.9378052 0.4965515 -3.7423935 0.2543335 -5.4137573c-0.24224854 -1.6713562 -0.8296509 -3.1368256 -1.7622375 -4.396408c-1.1384583 -1.6471329 -2.8461914 -3.0641556 -5.123169 -4.251068c-2.2648315 -1.1869049 -5.0444336 -2.2648087 -8.338776 -3.2337189c-2.6645203 -0.82357025 -4.7537537 -1.513916 -6.2677 -2.0710373c-1.5139465 -0.5571213 -2.591858 -1.0597382 -3.2337646 -1.5078583c-0.6540222 -0.44812012 -1.1142578 -1.0052414 -1.3807068 -1.6713562c-0.2664795 -0.66612244 -0.32095337 -1.3746414 -0.16351318 -2.125534c0.15744019 -0.7387924 0.44207764 -1.3867493 0.8538513 -1.9438705c0.42391968 -0.5571213 0.9749756 -1.0415726 1.6532288 -1.4533539c0.6782532 -0.41178894 1.4654846 -0.70851135 2.3617554 -0.8901825c0.89624023 -0.18167114 1.9014893 -0.2725067 3.015747 -0.2725067c1.4897156 0 3.064209 0.29673004 4.7235107 0.8901825c1.6592712 0.59345245 3.2156067 1.3927994 4.668976 2.3980408c1.4654846 1.0052338 2.7311401 2.137642 3.7969666 3.3972244l11.608887 -10.482342c-1.5987244 -1.8651428 -3.542633 -3.4638367 -5.8316956 -4.7960815c-2.2769775 -1.3443565 -4.8264465 -2.3859253 -7.6484375 -3.1247177c-2.8219604 -0.75090027 -5.8680115 -1.1263504 -9.138123 -1.1263504z" fill-rule="evenodd"/><path stroke="#ffffff" stroke-width="1.0" stroke-linejoin="round" stroke-linecap="butt" d="m325.632 40.26044l-3.1800842 14.969582l-10.499878 0l-3.306427 15.623592l10.487274 0l-9.270081 43.637054l17.858429 0l9.270081 -43.637054l11.495087 0l3.3064575 -15.623592l-11.482513 0l3.1800842 -14.969582zm34.069275 55.481922c-2.8219604 0 -5.322998 0.9325714 -7.5030823 2.7977142c-2.1800842 1.8530273 -3.5849915 4.2692337 -4.214813 7.248619c-0.67822266 3.1973877 -0.3633423 5.655983 0.94470215 7.375786c1.3201599 1.707695 3.5002441 2.5615463 6.540222 2.5615463c2.9067688 0 5.450165 -0.93257904 7.630249 -2.7977142c2.1800842 -1.8651428 3.578949 -4.2450104 4.1966553 -7.139618c0.67822266 -3.1973877 0.3451538 -5.6680984 -0.99920654 -7.4121246c-1.3443909 -1.756134 -3.542633 -2.6342087 -6.5947266 -2.6342087z" fill-rule="evenodd"/></g></svg>